<mxfile host="app.diagrams.net" modified="2022-05-18T10:06:51.674Z" agent="5.0 (Windows NT 10.0; Win64; x64) AppleWebKit/537.36 (KHTML, like Gecko) Chrome/101.0.4951.64 Safari/537.36 Edg/101.0.1210.47" etag="Nequ91mShtTuVyTQF9ro" version="18.0.7" type="github">
  <diagram id="S2_E-uF9EmZPekj6ZunL" name="第 1 页">
    <mxGraphModel dx="1093" dy="609" grid="0" gridSize="10" guides="1" tooltips="1" connect="1" arrows="1" fold="1" page="1" pageScale="1" pageWidth="827" pageHeight="1169" math="0" shadow="0">
      <root>
        <mxCell id="0" />
        <mxCell id="1" parent="0" />
        <mxCell id="7UaeZVv711-MyqV3K8wE-5" value="外事办老师" style="shape=umlActor;verticalLabelPosition=bottom;verticalAlign=top;html=1;outlineConnect=0;" vertex="1" parent="1">
          <mxGeometry x="90" y="335" width="30" height="60" as="geometry" />
        </mxCell>
        <mxCell id="7UaeZVv711-MyqV3K8wE-6" value="" style="rounded=0;whiteSpace=wrap;html=1;" vertex="1" parent="1">
          <mxGeometry x="213" y="102" width="326" height="567" as="geometry" />
        </mxCell>
        <mxCell id="7UaeZVv711-MyqV3K8wE-7" value="来访接待管理" style="text;html=1;align=center;verticalAlign=middle;resizable=0;points=[];autosize=1;strokeColor=none;fillColor=none;" vertex="1" parent="1">
          <mxGeometry x="213" y="111" width="82" height="18" as="geometry" />
        </mxCell>
        <mxCell id="7UaeZVv711-MyqV3K8wE-8" value="新增事件" style="ellipse;whiteSpace=wrap;html=1;" vertex="1" parent="1">
          <mxGeometry x="323" y="182" width="100" height="45" as="geometry" />
        </mxCell>
        <mxCell id="7UaeZVv711-MyqV3K8wE-9" value="删除事件" style="ellipse;whiteSpace=wrap;html=1;" vertex="1" parent="1">
          <mxGeometry x="323" y="233" width="100" height="45" as="geometry" />
        </mxCell>
        <mxCell id="7UaeZVv711-MyqV3K8wE-10" value="安排事件" style="ellipse;whiteSpace=wrap;html=1;" vertex="1" parent="1">
          <mxGeometry x="323" y="391" width="100" height="45" as="geometry" />
        </mxCell>
        <mxCell id="7UaeZVv711-MyqV3K8wE-11" value="处理事件" style="ellipse;whiteSpace=wrap;html=1;" vertex="1" parent="1">
          <mxGeometry x="323" y="338" width="100" height="45" as="geometry" />
        </mxCell>
        <mxCell id="7UaeZVv711-MyqV3K8wE-13" value="查看来访人员&lt;span style=&quot;color: rgba(0, 0, 0, 0); font-family: monospace; font-size: 0px; text-align: start;&quot;&gt;%3CmxGraphModel%3E%3Croot%3E%3CmxCell%20id%3D%220%22%2F%3E%3CmxCell%20id%3D%221%22%20parent%3D%220%22%2F%3E%3CmxCell%20id%3D%222%22%20value%3D%22%E6%96%B0%E5%A2%9E%E6%B4%BB%E5%8A%A8%22%20style%3D%22ellipse%3BwhiteSpace%3Dwrap%3Bhtml%3D1%3B%22%20vertex%3D%221%22%20parent%3D%221%22%3E%3CmxGeometry%20x%3D%22323%22%20y%3D%22158%22%20width%3D%22100%22%20height%3D%2245%22%20as%3D%22geometry%22%2F%3E%3C%2FmxCell%3E%3C%2Froot%3E%3C%2FmxGraphModel%3E&lt;/span&gt;" style="ellipse;whiteSpace=wrap;html=1;" vertex="1" parent="1">
          <mxGeometry x="323" y="495" width="100" height="45" as="geometry" />
        </mxCell>
        <mxCell id="7UaeZVv711-MyqV3K8wE-14" value="修改来访人员" style="ellipse;whiteSpace=wrap;html=1;" vertex="1" parent="1">
          <mxGeometry x="323" y="549" width="100" height="45" as="geometry" />
        </mxCell>
        <mxCell id="7UaeZVv711-MyqV3K8wE-16" value="审批事件&lt;span style=&quot;color: rgba(0, 0, 0, 0); font-family: monospace; font-size: 0px; text-align: start;&quot;&gt;%3CmxGraphModel%3E%3Croot%3E%3CmxCell%20id%3D%220%22%2F%3E%3CmxCell%20id%3D%221%22%20parent%3D%220%22%2F%3E%3CmxCell%20id%3D%222%22%20value%3D%22%E6%96%B0%E5%A2%9E%E6%B4%BB%E5%8A%A8%22%20style%3D%22ellipse%3BwhiteSpace%3Dwrap%3Bhtml%3D1%3B%22%20vertex%3D%221%22%20parent%3D%221%22%3E%3CmxGeometry%20x%3D%22323%22%20y%3D%22158%22%20width%3D%22100%22%20height%3D%2245%22%20as%3D%22geometry%22%2F%3E%3C%2FmxCell%3E%3C%2Froot%3E%3C%2FmxGraphModel%3E&lt;/span&gt;" style="ellipse;whiteSpace=wrap;html=1;" vertex="1" parent="1">
          <mxGeometry x="323" y="284" width="100" height="45" as="geometry" />
        </mxCell>
        <mxCell id="7UaeZVv711-MyqV3K8wE-17" value="查看详细信息" style="ellipse;whiteSpace=wrap;html=1;" vertex="1" parent="1">
          <mxGeometry x="323" y="444" width="100" height="45" as="geometry" />
        </mxCell>
        <mxCell id="7UaeZVv711-MyqV3K8wE-19" value="下载文件活动" style="ellipse;whiteSpace=wrap;html=1;" vertex="1" parent="1">
          <mxGeometry x="323" y="600" width="100" height="45" as="geometry" />
        </mxCell>
        <mxCell id="7UaeZVv711-MyqV3K8wE-23" value="外事办领导" style="shape=umlActor;verticalLabelPosition=bottom;verticalAlign=top;html=1;outlineConnect=0;" vertex="1" parent="1">
          <mxGeometry x="660" y="335" width="30" height="60" as="geometry" />
        </mxCell>
        <mxCell id="7UaeZVv711-MyqV3K8wE-28" value="" style="endArrow=classic;html=1;rounded=0;entryX=0;entryY=0.5;entryDx=0;entryDy=0;exitX=0.5;exitY=0.5;exitDx=0;exitDy=0;exitPerimeter=0;" edge="1" parent="1" source="7UaeZVv711-MyqV3K8wE-5" target="7UaeZVv711-MyqV3K8wE-8">
          <mxGeometry width="50" height="50" relative="1" as="geometry">
            <mxPoint x="434" y="390" as="sourcePoint" />
            <mxPoint x="484" y="340" as="targetPoint" />
          </mxGeometry>
        </mxCell>
        <mxCell id="7UaeZVv711-MyqV3K8wE-29" value="" style="endArrow=classic;html=1;rounded=0;exitX=0.5;exitY=0.5;exitDx=0;exitDy=0;exitPerimeter=0;entryX=0;entryY=0.5;entryDx=0;entryDy=0;" edge="1" parent="1" source="7UaeZVv711-MyqV3K8wE-5" target="7UaeZVv711-MyqV3K8wE-9">
          <mxGeometry width="50" height="50" relative="1" as="geometry">
            <mxPoint x="440" y="390" as="sourcePoint" />
            <mxPoint x="484" y="340" as="targetPoint" />
          </mxGeometry>
        </mxCell>
        <mxCell id="7UaeZVv711-MyqV3K8wE-30" value="" style="endArrow=classic;html=1;rounded=0;exitX=0.5;exitY=0.5;exitDx=0;exitDy=0;exitPerimeter=0;entryX=0;entryY=0.5;entryDx=0;entryDy=0;" edge="1" parent="1" source="7UaeZVv711-MyqV3K8wE-5" target="7UaeZVv711-MyqV3K8wE-11">
          <mxGeometry width="50" height="50" relative="1" as="geometry">
            <mxPoint x="434" y="390" as="sourcePoint" />
            <mxPoint x="484" y="340" as="targetPoint" />
          </mxGeometry>
        </mxCell>
        <mxCell id="7UaeZVv711-MyqV3K8wE-31" value="" style="endArrow=classic;html=1;rounded=0;exitX=0.5;exitY=0.5;exitDx=0;exitDy=0;exitPerimeter=0;entryX=0;entryY=0.5;entryDx=0;entryDy=0;" edge="1" parent="1" source="7UaeZVv711-MyqV3K8wE-5" target="7UaeZVv711-MyqV3K8wE-10">
          <mxGeometry width="50" height="50" relative="1" as="geometry">
            <mxPoint x="434" y="390" as="sourcePoint" />
            <mxPoint x="484" y="340" as="targetPoint" />
          </mxGeometry>
        </mxCell>
        <mxCell id="7UaeZVv711-MyqV3K8wE-32" value="" style="endArrow=classic;html=1;rounded=0;exitX=0.5;exitY=0.5;exitDx=0;exitDy=0;exitPerimeter=0;entryX=0;entryY=0.5;entryDx=0;entryDy=0;" edge="1" parent="1" source="7UaeZVv711-MyqV3K8wE-5" target="7UaeZVv711-MyqV3K8wE-17">
          <mxGeometry width="50" height="50" relative="1" as="geometry">
            <mxPoint x="434" y="485" as="sourcePoint" />
            <mxPoint x="484" y="435" as="targetPoint" />
          </mxGeometry>
        </mxCell>
        <mxCell id="7UaeZVv711-MyqV3K8wE-33" value="" style="endArrow=classic;html=1;rounded=0;exitX=0.5;exitY=0.5;exitDx=0;exitDy=0;exitPerimeter=0;entryX=0;entryY=0.5;entryDx=0;entryDy=0;" edge="1" parent="1" source="7UaeZVv711-MyqV3K8wE-5" target="7UaeZVv711-MyqV3K8wE-13">
          <mxGeometry width="50" height="50" relative="1" as="geometry">
            <mxPoint x="434" y="485" as="sourcePoint" />
            <mxPoint x="484" y="435" as="targetPoint" />
          </mxGeometry>
        </mxCell>
        <mxCell id="7UaeZVv711-MyqV3K8wE-34" value="" style="endArrow=classic;html=1;rounded=0;exitX=0.5;exitY=0.5;exitDx=0;exitDy=0;exitPerimeter=0;entryX=0;entryY=0.5;entryDx=0;entryDy=0;" edge="1" parent="1" source="7UaeZVv711-MyqV3K8wE-5" target="7UaeZVv711-MyqV3K8wE-14">
          <mxGeometry width="50" height="50" relative="1" as="geometry">
            <mxPoint x="434" y="485" as="sourcePoint" />
            <mxPoint x="484" y="435" as="targetPoint" />
          </mxGeometry>
        </mxCell>
        <mxCell id="7UaeZVv711-MyqV3K8wE-35" value="" style="endArrow=classic;html=1;rounded=0;exitX=0.5;exitY=0.5;exitDx=0;exitDy=0;exitPerimeter=0;entryX=0;entryY=0.5;entryDx=0;entryDy=0;" edge="1" parent="1" source="7UaeZVv711-MyqV3K8wE-5" target="7UaeZVv711-MyqV3K8wE-19">
          <mxGeometry width="50" height="50" relative="1" as="geometry">
            <mxPoint x="434" y="485" as="sourcePoint" />
            <mxPoint x="484" y="435" as="targetPoint" />
          </mxGeometry>
        </mxCell>
        <mxCell id="7UaeZVv711-MyqV3K8wE-36" value="" style="endArrow=classic;html=1;rounded=0;exitX=0.5;exitY=0.5;exitDx=0;exitDy=0;exitPerimeter=0;entryX=1;entryY=0.5;entryDx=0;entryDy=0;" edge="1" parent="1" source="7UaeZVv711-MyqV3K8wE-23" target="7UaeZVv711-MyqV3K8wE-16">
          <mxGeometry width="50" height="50" relative="1" as="geometry">
            <mxPoint x="434" y="390" as="sourcePoint" />
            <mxPoint x="484" y="340" as="targetPoint" />
          </mxGeometry>
        </mxCell>
        <mxCell id="7UaeZVv711-MyqV3K8wE-37" value="" style="endArrow=classic;html=1;rounded=0;exitX=0.5;exitY=0.5;exitDx=0;exitDy=0;exitPerimeter=0;entryX=1;entryY=0.5;entryDx=0;entryDy=0;" edge="1" parent="1" source="7UaeZVv711-MyqV3K8wE-23" target="7UaeZVv711-MyqV3K8wE-17">
          <mxGeometry width="50" height="50" relative="1" as="geometry">
            <mxPoint x="434" y="390" as="sourcePoint" />
            <mxPoint x="484" y="340" as="targetPoint" />
          </mxGeometry>
        </mxCell>
        <mxCell id="7UaeZVv711-MyqV3K8wE-38" value="" style="endArrow=classic;html=1;rounded=0;exitX=0.5;exitY=0.5;exitDx=0;exitDy=0;exitPerimeter=0;entryX=1;entryY=0.5;entryDx=0;entryDy=0;" edge="1" parent="1" source="7UaeZVv711-MyqV3K8wE-23" target="7UaeZVv711-MyqV3K8wE-13">
          <mxGeometry width="50" height="50" relative="1" as="geometry">
            <mxPoint x="434" y="390" as="sourcePoint" />
            <mxPoint x="484" y="340" as="targetPoint" />
          </mxGeometry>
        </mxCell>
        <mxCell id="7UaeZVv711-MyqV3K8wE-39" value="" style="endArrow=classic;html=1;rounded=0;exitX=0.5;exitY=0.5;exitDx=0;exitDy=0;exitPerimeter=0;entryX=1;entryY=0.5;entryDx=0;entryDy=0;" edge="1" parent="1" source="7UaeZVv711-MyqV3K8wE-23" target="7UaeZVv711-MyqV3K8wE-19">
          <mxGeometry width="50" height="50" relative="1" as="geometry">
            <mxPoint x="434" y="390" as="sourcePoint" />
            <mxPoint x="484" y="340" as="targetPoint" />
          </mxGeometry>
        </mxCell>
      </root>
    </mxGraphModel>
  </diagram>
</mxfile>
